<?xml version="1.0" encoding="utf-8"?>
<!-- Generator: Adobe Illustrator 15.1.0, SVG Export Plug-In . SVG Version: 6.00 Build 0)  -->
<!DOCTYPE svg PUBLIC "-//W3C//DTD SVG 1.1//EN" "http://www.w3.org/Graphics/SVG/1.1/DTD/svg11.dtd">
<svg version="1.1" id="Layer_1" xmlns="http://www.w3.org/2000/svg" xmlns:xlink="http://www.w3.org/1999/xlink" x="0px" y="0px"
	 width="144px" height="144px" viewBox="0 0 144 144" enable-background="new 0 0 144 144" xml:space="preserve">
<g>
	<g>
		<g>
			<g>
				<g>
					<path fill-rule="evenodd" clip-rule="evenodd" fill="#F0B51C" d="M51.774,107.973h1.873c1.656,0,3-1.343,3-3
						c0-1.655-1.344-2.999-3-2.999h-1.873c-1.657,0-3,1.344-3,2.999C48.774,106.63,50.118,107.973,51.774,107.973"/>
					<path fill-rule="evenodd" clip-rule="evenodd" fill="#F0B51C" d="M51.774,53.974h1.873c1.656,0,3-1.343,3-3s-1.344-3-3-3
						h-1.873c-1.657,0-3,1.343-3,3S50.118,53.974,51.774,53.974"/>
				</g>
			</g>
		</g>
	</g>
	<path fill-rule="evenodd" clip-rule="evenodd" fill="#F0B51C" d="M128.915,60.228v-3.254c0-4.963-4.039-9-9.001-9H89.912V32.973
		c0-1.657-1.343-3-3-3h-9v-8.999c0-1.657-1.344-3-3-3H34.157l-5.123-5.123c-1.171-1.171-3.071-1.171-4.242,0L7.67,29.973H2.913
		c-1.657,0-3,1.343-3,3v84.001c0,1.655,1.343,3,3,3h12.302c0.451,2.215,1.393,4.255,2.706,5.999h-6.008c-1.657,0-3,1.344-3,3
		c0,0.214,0.023,0.445,0.065,0.687c0.027,0.076,0.562,2.173,2.442,2.295h19.202c6.927-0.323,12.64-5.367,13.987-11.98h54.606
		c0.452,2.215,1.395,4.255,2.707,5.999h-6.009c-1.656,0-2.999,1.344-2.999,3c0,0.274,0.04,0.581,0.109,0.898
		c0.014,0.509,0.678,1.918,2.357,2.083h19.107v0.005c6.986-0.265,12.767-5.33,14.122-11.985h12.302c1.656,0,3-1.345,3-3V77.972
		C143.913,69.07,137.415,61.661,128.915,60.228z M71.912,23.974v5.999H46.156l-5.999-5.999H71.912z M26.914,19.215l3.878,3.877
		c0.001,0.001,0.003,0.003,0.004,0.004l6.875,6.875H16.156L26.914,19.215z M29.913,125.973c-4.963,0-9-4.037-9-8.999
		c0-4.964,4.038-9.001,9-9.001c4.962,0,8.999,4.037,8.999,9.001C38.912,121.936,34.875,125.973,29.913,125.973z M83.913,101.974
		H63.509c-1.656,0-3,1.344-3,2.999c0,1.657,1.343,3,3,3h20.404v6.001H44.609c-1.393-6.84-7.454-12.001-14.697-12.001
		c-7.244,0-13.305,5.161-14.698,12.001H5.913v-48h12c1.656,0,3-1.343,3-3c0-1.657-1.343-3-3-3h-12v-6h35.999
		c1.657,0,3.001-1.343,3.001-3s-1.344-3-3.001-3H5.913V35.973h2.998c0.002,0,0.003,0,0.005,0h74.998V101.974z M99.216,113.974
		h-9.304v-6.001h12.011C100.609,109.719,99.668,111.758,99.216,113.974z M122.914,116.982c-0.006,4.958-4.041,8.99-9,8.99
		c-4.963,0-9-4.037-9-8.999c0-4.956,4.025-8.988,8.977-9.001h0.023c0.002,0,0.006,0,0.008,0c4.956,0.005,8.986,4.035,8.992,8.991
		c0,0.002,0,0.006,0,0.01C122.914,116.976,122.914,116.979,122.914,116.982z M137.912,113.974h-9.301
		c-1.394-6.84-7.454-12.001-14.697-12.001c-0.008,0-0.016,0.001-0.023,0.001H89.912v-48h30.002c1.654,0,3,1.346,3,3v3h-21
		c-1.656,0-3,1.343-3,3v26.999c0,1.657,1.344,3,3,3h35.998V113.974z M110.914,65.973v21h-6v-21H110.914z M137.912,86.973h-20.997
		v-21h8.999c6.616,0,11.998,5.382,11.998,11.999V86.973z"/>
	<path fill-rule="evenodd" clip-rule="evenodd" fill="#F0B51C" d="M99.625,128.964c0,1.654-1.341,2.995-2.995,2.995h-1.675
		c-1.654,0-2.995-1.341-2.995-2.995l0,0c0-1.654,1.341-2.994,2.995-2.994h1.675C98.284,125.97,99.625,127.31,99.625,128.964
		L99.625,128.964z"/>
	<path fill-rule="evenodd" clip-rule="evenodd" fill="#F0B51C" d="M14.285,128.964c0,1.654-1.341,2.995-2.995,2.995H9.615
		c-1.654,0-2.995-1.341-2.995-2.995l0,0c0-1.654,1.341-2.994,2.995-2.994h1.675C12.944,125.97,14.285,127.31,14.285,128.964
		L14.285,128.964z"/>
</g>
</svg>
