<?xml version="1.0" encoding="utf-8"?>
<!-- Generator: Adobe Illustrator 15.1.0, SVG Export Plug-In . SVG Version: 6.00 Build 0)  -->
<!DOCTYPE svg PUBLIC "-//W3C//DTD SVG 1.1//EN" "http://www.w3.org/Graphics/SVG/1.1/DTD/svg11.dtd">
<svg version="1.1" id="Layer_1" xmlns="http://www.w3.org/2000/svg" xmlns:xlink="http://www.w3.org/1999/xlink" x="0px" y="0px"
	 width="30px" height="30px" viewBox="0 0 30 30" enable-background="new 0 0 30 30" xml:space="preserve">
<g>
	<path fill="#85A640" d="M1.345,28.34c-0.155,0.309,0,0.619,0.156,0.775c0.308,0.156,0.62,0.156,0.933,0.156l4.65-1.709
		c2.332,1.553,5.125,2.33,7.916,2.33c8.227,0,14.898-6.676,14.898-14.899C29.899,6.77,23.227,0.098,15,0.098
		c-8.225,0-14.899,6.671-14.899,14.896c0,3.104,0.933,6.208,2.794,8.688L1.345,28.34z"/>
	<rect x="0.101" y="0.098" fill="none" width="29.794" height="29.805"/>
	<path fill="#FFFFFF" d="M20.055,16.745c-0.529-0.52-1.184-0.52-1.707,0c-0.393,0.395-0.793,0.791-1.186,1.191
		c-0.109,0.117-0.199,0.137-0.328,0.061c-0.262-0.137-0.533-0.252-0.779-0.408c-1.154-0.727-2.123-1.659-2.979-2.711
		c-0.426-0.524-0.804-1.078-1.072-1.715c-0.05-0.123-0.043-0.206,0.066-0.312c0.395-0.381,0.783-0.78,1.174-1.171
		c0.545-0.551,0.545-1.194,0-1.745c-0.314-0.312-0.623-0.624-0.936-0.936c-0.321-0.325-0.64-0.647-0.965-0.962
		c-0.527-0.518-1.185-0.518-1.701,0C9.241,8.432,8.852,8.84,8.448,9.228c-0.385,0.355-0.577,0.79-0.609,1.3
		c-0.066,0.836,0.143,1.622,0.42,2.392c0.594,1.585,1.494,2.992,2.578,4.293c1.473,1.742,3.225,3.125,5.278,4.119
		c0.923,0.449,1.882,0.793,2.923,0.854c0.713,0.039,1.336-0.143,1.834-0.699c0.342-0.385,0.727-0.734,1.092-1.096
		c0.535-0.541,0.537-1.201,0.004-1.734C21.331,18.02,20.696,17.379,20.055,16.745L20.055,16.745z M20.055,16.745"/>
</g>
</svg>
